<?xml version="1.0" encoding="UTF-8"?>
<svg version="1.1" xmlns="http://www.w3.org/2000/svg" xmlns:xlink="http://www.w3.org/1999/xlink" width="32" height="32" viewBox="0, 0, 400,400">
    <g id="logo">
        <path d="M175.503 63.613 C 168.721 64.755,155.461 72.157,156.676 74.123 C 156.812 74.343,156.745 74.413,156.527 74.278 C 155.670 73.749,150.043 80.734,146.562 86.648 C 128.750 116.910,125.947 171.204,140.866 197.000 L 142.485 199.800 141.545 206.000 C 140.327 214.031,140.204 226.422,141.293 231.311 C 143.282 240.231,147.765 243.600,157.647 243.600 C 160.788 243.600,160.848 243.618,160.576 244.500 C 159.764 247.134,157.217 251.222,150.688 260.375 C 138.608 277.307,136.866 286.696,143.210 300.685 C 144.487 303.503,144.387 303.981,142.515 303.994 C 138.889 304.019,135.594 306.658,133.267 311.400 C 130.717 316.595,129.211 317.763,121.414 320.585 C 114.993 322.909,112.722 324.416,110.295 327.962 L 109.037 329.800 110.419 328.757 C 112.959 326.838,115.881 325.636,121.462 324.214 C 130.515 321.907,132.818 320.473,137.675 314.117 C 140.606 310.282,146.766 307.506,148.149 309.398 C 148.590 310.002,148.624 309.779,148.365 307.956 C 146.304 293.452,149.993 282.818,163.054 265.600 C 172.239 253.493,174.454 249.302,176.165 240.800 C 176.331 239.973,177.007 239.533,180.083 238.255 C 182.127 237.405,188.390 234.360,194.000 231.488 C 199.610 228.616,206.450 225.113,209.200 223.704 C 214.951 220.757,215.330 220.735,218.424 223.182 C 220.384 224.731,224.613 226.400,226.578 226.400 C 227.912 226.400,232.693 233.028,235.608 238.920 C 242.659 253.173,241.283 267.051,231.775 277.575 L 230.464 279.027 227.332 278.742 C 222.213 278.276,207.332 278.363,203.427 278.881 L 199.800 279.363 204.400 279.877 C 233.896 283.172,266.813 296.795,271.580 307.679 C 279.907 326.692,233.156 336.777,157.063 332.383 C 149.999 331.976,135.342 332.649,134.461 333.422 C 134.385 333.489,137.985 333.445,142.461 333.324 C 148.932 333.149,152.527 333.278,160.000 333.956 C 242.119 341.397,289.552 334.700,291.097 315.446 C 292.327 300.129,273.840 286.764,243.400 280.965 C 241.420 280.588,239.763 280.254,239.718 280.224 C 239.672 280.194,241.167 278.592,243.039 276.664 C 256.210 263.102,257.521 246.789,246.717 230.900 C 245.441 229.023,245.505 228.863,247.114 229.900 L 248.200 230.600 247.447 229.400 C 244.498 224.700,241.390 223.600,231.064 223.600 C 224.010 223.600,221.380 223.154,218.086 221.401 C 214.837 219.671,215.239 219.570,197.800 226.523 C 171.339 237.074,156.897 238.682,150.815 231.756 C 144.455 224.513,147.570 190.947,157.189 163.078 C 162.103 148.838,170.447 143.918,180.761 149.180 L 182.324 149.977 185.552 144.929 C 187.433 141.987,188.863 140.114,188.979 140.440 C 189.088 140.748,190.000 143.340,191.005 146.200 C 195.554 159.152,198.631 163.981,208.589 173.800 C 217.336 182.426,218.846 184.644,218.885 188.920 C 218.947 195.807,210.327 202.052,199.345 203.078 L 196.739 203.321 201.360 205.714 C 205.566 207.892,206.618 208.800,204.934 208.800 C 204.593 208.800,198.979 210.138,192.457 211.772 C 180.278 214.825,174.149 216.139,173.619 215.812 C 173.453 215.709,173.097 214.315,172.827 212.713 L 172.336 209.800 174.168 205.084 C 177.437 196.663,179.785 187.401,181.000 178.134 C 182.222 168.813,181.889 169.227,177.247 182.800 C 171.005 201.050,167.193 211.051,161.714 223.560 C 161.212 224.706,170.678 222.720,187.006 218.255 C 216.797 210.107,228.260 209.341,239.364 214.758 L 242.391 216.234 241.295 215.048 C 236.840 210.222,232.152 207.968,224.916 207.171 C 221.380 206.781,216.797 205.224,216.801 204.414 C 216.801 204.296,218.096 203.480,219.678 202.600 C 232.737 195.334,231.990 186.094,217.368 174.003 C 205.773 164.415,203.812 160.698,203.310 147.345 L 203.083 141.290 199.441 141.106 C 197.049 140.985,195.037 140.626,193.576 140.060 C 189.482 138.475,189.484 138.944,193.534 132.372 C 205.735 112.576,211.551 98.127,211.618 87.448 L 211.635 84.600 212.418 86.082 C 214.516 90.055,215.002 97.086,213.600 103.200 C 213.171 105.070,212.816 106.821,212.810 107.092 C 212.798 107.688,215.648 109.200,216.784 109.200 C 217.233 109.200,217.600 109.395,217.600 109.633 C 217.600 109.915,216.623 110.019,214.800 109.933 L 211.999 109.800 212.225 111.200 C 212.350 111.970,213.274 114.297,214.279 116.371 C 216.542 121.042,216.314 121.550,211.500 122.580 C 210.114 122.876,210.109 123.592,211.479 125.221 L 212.559 126.504 211.635 127.252 C 211.001 127.765,210.066 128.000,208.656 128.001 L 206.600 128.003 207.900 128.796 C 209.988 130.068,209.315 132.000,206.784 132.000 C 205.937 132.000,205.922 132.089,206.192 135.502 C 206.452 138.785,206.411 139.078,205.535 140.192 C 204.656 141.309,204.600 141.714,204.603 146.990 C 204.608 157.353,207.777 164.066,214.279 167.488 C 218.148 169.524,218.900 169.568,216.715 167.630 C 208.805 160.615,209.316 149.911,218.709 125.800 C 229.737 97.496,228.321 86.654,212.480 78.091 C 210.236 76.878,209.369 76.152,208.737 74.956 C 207.130 71.917,206.122 70.995,202.149 68.931 C 192.975 64.166,183.478 62.271,175.503 63.613 M214.600 299.230 C 210.418 299.933,205.209 301.755,195.797 305.805 C 178.440 313.275,166.775 315.938,155.417 315.024 C 151.304 314.693,151.621 314.917,157.005 316.147 C 173.194 319.844,185.393 318.857,208.200 312.001 C 223.962 307.263,230.393 306.022,240.789 305.711 L 248.178 305.489 245.989 304.509 C 235.589 299.850,223.249 297.775,214.600 299.230" stroke="none" fill="#FFB3A7" fill-rule="evenodd"/>
    </g>
</svg> 